<mxfile host="app.diagrams.net" agent="Mozilla/5.0 (Macintosh; Intel Mac OS X 10_15_7) AppleWebKit/537.36 (KHTML, like Gecko) Chrome/128.0.0.0 Safari/537.36" version="24.7.13">
  <diagram name="Page-1" id="5f0bae14-7c28-e335-631c-24af17079c00">
    <mxGraphModel dx="5093" dy="2724" grid="1" gridSize="10" guides="1" tooltips="1" connect="1" arrows="1" fold="1" page="1" pageScale="1" pageWidth="1100" pageHeight="850" background="none" math="0" shadow="0">
      <root>
        <mxCell id="0" />
        <mxCell id="1" parent="0" />
        <mxCell id="SQwasOvT_zGMSssknf-Y-74" value="" style="shape=mxgraph.mockup.containers.marginRect;rectMarginTop=10;strokeColor=#666666;strokeWidth=1;dashed=0;rounded=1;arcSize=5;recursiveResize=0;html=1;whiteSpace=wrap;" vertex="1" parent="1">
          <mxGeometry x="-2220" y="-450" width="720" height="310" as="geometry" />
        </mxCell>
        <mxCell id="SQwasOvT_zGMSssknf-Y-75" value="SCHOOLS" style="shape=rect;strokeColor=none;fillColor=#008cff;strokeWidth=1;dashed=0;rounded=1;arcSize=20;fontColor=#ffffff;fontSize=17;spacing=2;spacingTop=-2;align=left;autosize=1;spacingLeft=4;resizeWidth=0;resizeHeight=0;perimeter=none;html=1;whiteSpace=wrap;" vertex="1" parent="SQwasOvT_zGMSssknf-Y-74">
          <mxGeometry x="5" width="110" height="30" as="geometry" />
        </mxCell>
        <mxCell id="SQwasOvT_zGMSssknf-Y-69" value="DATABASE" style="swimlane;whiteSpace=wrap;html=1;" vertex="1" parent="SQwasOvT_zGMSssknf-Y-74">
          <mxGeometry y="79" width="180" height="140" as="geometry" />
        </mxCell>
        <mxCell id="SQwasOvT_zGMSssknf-Y-31" value="" style="html=1;overflow=block;blockSpacing=1;whiteSpace=wrap;shape=image;fontSize=13;spacing=0;verticalAlign=top;strokeColor=none;strokeOpacity=100;rounded=1;absoluteArcSize=1;arcSize=3;strokeWidth=0;image=https://images.lucid.app/images/eab36975-795f-43eb-9fa6-2a4ec449a167/content;imageAspect=0;lucidId=D5._i3d-ts5E;" vertex="1" parent="SQwasOvT_zGMSssknf-Y-69">
          <mxGeometry x="90" y="40" width="90" height="70" as="geometry" />
        </mxCell>
        <mxCell id="SQwasOvT_zGMSssknf-Y-30" value="" style="html=1;overflow=block;blockSpacing=1;whiteSpace=wrap;shape=image;fontSize=13;spacing=0;verticalAlign=top;strokeColor=none;strokeOpacity=100;rounded=1;absoluteArcSize=1;arcSize=3;strokeWidth=0;image=https://images.lucid.app/images/d75e7c1f-9ecd-4619-aa3e-60ae168ddaa7/content;imageAspect=0;lucidId=D5._XZQIcRw5;" vertex="1" parent="SQwasOvT_zGMSssknf-Y-69">
          <mxGeometry x="30" y="50" width="45" height="45" as="geometry" />
        </mxCell>
        <mxCell id="SQwasOvT_zGMSssknf-Y-55" value="" style="html=1;jettySize=18;whiteSpace=wrap;fontSize=13;strokeColor=#3a414a;strokeOpacity=100;strokeWidth=0.8;rounded=1;arcSize=12;edgeStyle=orthogonalEdgeStyle;startArrow=none;endArrow=block;endFill=1;exitX=0.873;exitY=0.5;exitPerimeter=0;entryX=0.261;entryY=0.464;entryPerimeter=0;lucidId=H8~_--bgaZ5E;" edge="1" parent="SQwasOvT_zGMSssknf-Y-69" source="SQwasOvT_zGMSssknf-Y-30" target="SQwasOvT_zGMSssknf-Y-31">
          <mxGeometry width="100" height="100" relative="1" as="geometry">
            <Array as="points" />
          </mxGeometry>
        </mxCell>
        <mxCell id="SQwasOvT_zGMSssknf-Y-72" value="" style="shape=mxgraph.mockup.containers.marginRect;rectMarginTop=10;strokeColor=#666666;strokeWidth=1;dashed=0;rounded=1;arcSize=5;recursiveResize=0;html=1;whiteSpace=wrap;" vertex="1" parent="1">
          <mxGeometry x="-2220" y="-990" width="720" height="510" as="geometry" />
        </mxCell>
        <mxCell id="SQwasOvT_zGMSssknf-Y-73" value="PRODUCTS" style="shape=rect;strokeColor=none;fillColor=#008cff;strokeWidth=1;dashed=0;rounded=1;arcSize=20;fontColor=#ffffff;fontSize=17;spacing=2;spacingTop=-2;align=left;autosize=1;spacingLeft=4;resizeWidth=0;resizeHeight=0;perimeter=none;html=1;whiteSpace=wrap;" vertex="1" parent="SQwasOvT_zGMSssknf-Y-72">
          <mxGeometry x="5" width="120" height="30" as="geometry" />
        </mxCell>
        <mxCell id="SQwasOvT_zGMSssknf-Y-61" value="BACKEND" style="swimlane;whiteSpace=wrap;html=1;" vertex="1" parent="SQwasOvT_zGMSssknf-Y-72">
          <mxGeometry y="49" width="167" height="420" as="geometry" />
        </mxCell>
        <mxCell id="SQwasOvT_zGMSssknf-Y-39" value="" style="html=1;jettySize=18;whiteSpace=wrap;fontSize=13;strokeColor=#3a414a;strokeOpacity=100;strokeWidth=0.8;rounded=1;arcSize=12;edgeStyle=orthogonalEdgeStyle;startArrow=none;endArrow=block;endFill=1;exitX=0.873;exitY=0.5;exitPerimeter=0;entryX=0.5;entryY=0.833;entryPerimeter=0;lucidId=f~._c75rtz0E;" edge="1" parent="SQwasOvT_zGMSssknf-Y-61" source="SQwasOvT_zGMSssknf-Y-36" target="SQwasOvT_zGMSssknf-Y-25">
          <mxGeometry width="100" height="100" relative="1" as="geometry">
            <Array as="points">
              <mxPoint x="113" y="383" />
            </Array>
          </mxGeometry>
        </mxCell>
        <mxCell id="SQwasOvT_zGMSssknf-Y-37" value="" style="html=1;jettySize=18;whiteSpace=wrap;fontSize=13;strokeColor=#3a414a;strokeOpacity=100;strokeWidth=0.8;rounded=1;arcSize=12;edgeStyle=orthogonalEdgeStyle;startArrow=none;endArrow=block;endFill=1;exitX=0.873;exitY=0.5;exitPerimeter=0;entryX=0.5;entryY=0.166;entryPerimeter=0;lucidId=a~._~S3auDbG;" edge="1" parent="SQwasOvT_zGMSssknf-Y-61" source="SQwasOvT_zGMSssknf-Y-24" target="SQwasOvT_zGMSssknf-Y-25">
          <mxGeometry width="100" height="100" relative="1" as="geometry">
            <Array as="points">
              <mxPoint x="54" y="71" />
              <mxPoint x="113" y="71" />
            </Array>
          </mxGeometry>
        </mxCell>
        <mxCell id="SQwasOvT_zGMSssknf-Y-25" value="" style="html=1;overflow=block;blockSpacing=1;whiteSpace=wrap;shape=image;fontSize=13;spacing=0;verticalAlign=top;strokeColor=none;strokeOpacity=100;rounded=1;absoluteArcSize=1;arcSize=3;strokeWidth=0;image=https://images.lucid.app/images/eab36975-795f-43eb-9fa6-2a4ec449a167/content;imageAspect=0;lucidId=yZ-_ljDgGwVF;" vertex="1" parent="SQwasOvT_zGMSssknf-Y-61">
          <mxGeometry x="60" y="194" width="105" height="70" as="geometry" />
        </mxCell>
        <mxCell id="SQwasOvT_zGMSssknf-Y-35" value="" style="html=1;overflow=block;blockSpacing=1;whiteSpace=wrap;shape=image;fontSize=13;spacing=0;verticalAlign=top;strokeColor=none;strokeOpacity=100;rounded=1;absoluteArcSize=1;arcSize=3;strokeWidth=0;image=https://images.lucid.app/images/d75e7c1f-9ecd-4619-aa3e-60ae168ddaa7/content;imageAspect=0;lucidId=1.._~5hdZXKU;" vertex="1" parent="SQwasOvT_zGMSssknf-Y-61">
          <mxGeometry x="15" y="197" width="45" height="45" as="geometry" />
        </mxCell>
        <mxCell id="SQwasOvT_zGMSssknf-Y-24" value="" style="html=1;overflow=block;blockSpacing=1;whiteSpace=wrap;shape=image;fontSize=13;spacing=0;verticalAlign=top;strokeColor=none;strokeOpacity=100;rounded=1;absoluteArcSize=1;arcSize=3;strokeWidth=0;image=https://images.lucid.app/images/d75e7c1f-9ecd-4619-aa3e-60ae168ddaa7/content;imageAspect=0;lucidId=yZ-_ja8_vL_1;" vertex="1" parent="SQwasOvT_zGMSssknf-Y-61">
          <mxGeometry x="15" y="46" width="45" height="45" as="geometry" />
        </mxCell>
        <mxCell id="SQwasOvT_zGMSssknf-Y-36" value="" style="html=1;overflow=block;blockSpacing=1;whiteSpace=wrap;shape=image;fontSize=13;spacing=0;verticalAlign=top;strokeColor=none;strokeOpacity=100;rounded=1;absoluteArcSize=1;arcSize=3;strokeWidth=0;image=https://images.lucid.app/images/d75e7c1f-9ecd-4619-aa3e-60ae168ddaa7/content;imageAspect=0;lucidId=5.._mBS5sX18;" vertex="1" parent="SQwasOvT_zGMSssknf-Y-61">
          <mxGeometry x="15" y="361" width="45" height="45" as="geometry" />
        </mxCell>
        <mxCell id="SQwasOvT_zGMSssknf-Y-38" value="" style="html=1;jettySize=18;whiteSpace=wrap;fontSize=13;strokeColor=#3a414a;strokeOpacity=100;strokeWidth=0.8;rounded=1;arcSize=12;edgeStyle=orthogonalEdgeStyle;startArrow=none;endArrow=block;endFill=1;exitX=0.873;exitY=0.5;exitPerimeter=0;entryX=0.262;entryY=0.357;entryPerimeter=0;lucidId=c~._xR7.Kp9r;" edge="1" parent="SQwasOvT_zGMSssknf-Y-61" source="SQwasOvT_zGMSssknf-Y-35" target="SQwasOvT_zGMSssknf-Y-25">
          <mxGeometry width="100" height="100" relative="1" as="geometry">
            <Array as="points" />
          </mxGeometry>
        </mxCell>
        <mxCell id="SQwasOvT_zGMSssknf-Y-62" value="WAREHOUSE" style="swimlane;whiteSpace=wrap;html=1;" vertex="1" parent="SQwasOvT_zGMSssknf-Y-72">
          <mxGeometry x="340" y="189" width="200" height="140" as="geometry" />
        </mxCell>
        <mxCell id="SQwasOvT_zGMSssknf-Y-64" value="B2C - B2B Sales" style="edgeStyle=orthogonalEdgeStyle;rounded=0;orthogonalLoop=1;jettySize=auto;html=1;entryX=1;entryY=0.5;entryDx=0;entryDy=0;" edge="1" parent="SQwasOvT_zGMSssknf-Y-72" source="SQwasOvT_zGMSssknf-Y-62" target="SQwasOvT_zGMSssknf-Y-61">
          <mxGeometry y="-10" relative="1" as="geometry">
            <mxPoint as="offset" />
          </mxGeometry>
        </mxCell>
        <mxCell id="SQwasOvT_zGMSssknf-Y-2" value="" style="html=1;overflow=block;blockSpacing=1;whiteSpace=wrap;rounded=1;absoluteArcSize=1;arcSize=24;container=1;pointerEvents=0;collapsible=0;recursiveResize=0;fontSize=13;align=left;spacing=0;verticalAlign=top;strokeColor=#6f7681;strokeOpacity=100;fillOpacity=100;fillColor=#fcfcca;strokeWidth=0.8;lucidId=zq~_w9c9ZZNn;" vertex="1" parent="1">
          <mxGeometry x="-2865" y="-810" width="255" height="214" as="geometry" />
        </mxCell>
        <mxCell id="SQwasOvT_zGMSssknf-Y-18" value="" style="html=1;overflow=block;blockSpacing=1;whiteSpace=wrap;fontSize=13;align=left;spacing=0;verticalAlign=top;strokeColor=#6f7681;strokeOpacity=100;fillOpacity=100;rounded=1;absoluteArcSize=1;arcSize=3;fillColor=#ffffff;strokeWidth=0.8;lucidId=XC-_A67Y-Ggg;" vertex="1" parent="1">
          <mxGeometry x="-2850" y="-767" width="225" height="128" as="geometry" />
        </mxCell>
        <mxCell id="SQwasOvT_zGMSssknf-Y-23" value="" style="html=1;overflow=block;blockSpacing=1;whiteSpace=wrap;fontSize=13;align=left;spacing=0;verticalAlign=top;strokeColor=#6f7681;strokeOpacity=100;fillOpacity=100;rounded=1;absoluteArcSize=1;arcSize=3;fillColor=#ffffff;strokeWidth=0.8;lucidId=ZY-_GBlxW2En;" vertex="1" parent="1">
          <mxGeometry x="-2445" y="-371" width="225" height="140" as="geometry" />
        </mxCell>
        <mxCell id="SQwasOvT_zGMSssknf-Y-32" value="" style="html=1;overflow=block;blockSpacing=1;whiteSpace=wrap;fontSize=13;align=left;spacing=0;verticalAlign=top;strokeColor=#6f7681;strokeOpacity=100;fillOpacity=100;rounded=1;absoluteArcSize=1;arcSize=3;fillColor=#ffffff;strokeWidth=0.8;lucidId=79._ihihvK5V;" vertex="1" parent="1">
          <mxGeometry x="-2450" y="-774" width="230" height="114" as="geometry" />
        </mxCell>
        <mxCell id="SQwasOvT_zGMSssknf-Y-33" value="" style="html=1;overflow=block;blockSpacing=1;whiteSpace=wrap;fontSize=13;align=left;spacing=0;verticalAlign=top;strokeColor=#6f7681;strokeOpacity=100;fillOpacity=100;rounded=1;absoluteArcSize=1;arcSize=3;fillColor=#ffffff;strokeWidth=0.8;lucidId=z-._UHAepqHJ;" vertex="1" parent="1">
          <mxGeometry x="-2450" y="-910" width="230" height="128" as="geometry" />
        </mxCell>
        <mxCell id="SQwasOvT_zGMSssknf-Y-34" value="" style="html=1;overflow=block;blockSpacing=1;whiteSpace=wrap;fontSize=13;align=left;spacing=0;verticalAlign=top;strokeColor=#6f7681;strokeOpacity=100;fillOpacity=100;rounded=1;absoluteArcSize=1;arcSize=3;fillColor=#ffffff;strokeWidth=0.8;lucidId=u.._L5OcZn0S;" vertex="1" parent="1">
          <mxGeometry x="-2445" y="-627" width="225" height="107" as="geometry" />
        </mxCell>
        <mxCell id="SQwasOvT_zGMSssknf-Y-43" value="CLINICS AREA" style="html=1;overflow=block;blockSpacing=1;whiteSpace=wrap;fontSize=13;fontFamily=Source Sans Pro;fontStyle=1;align=left;spacing=0;verticalAlign=top;strokeColor=#6f7681;strokeOpacity=100;fillOpacity=100;rounded=1;absoluteArcSize=1;arcSize=3;fillColor=#ffffff;strokeWidth=0.8;lucidId=fr~_LNYWVVCX;" vertex="1" parent="1">
          <mxGeometry x="-2850" y="-798" width="105" height="26" as="geometry" />
        </mxCell>
        <mxCell id="SQwasOvT_zGMSssknf-Y-44" value="INK" style="html=1;overflow=block;blockSpacing=1;whiteSpace=wrap;fontSize=13.3;fontStyle=1;align=left;spacing=3.8;verticalAlign=top;strokeColor=none;fillOpacity=0;rounded=1;absoluteArcSize=1;arcSize=3;fillColor=#ffffff;strokeWidth=0;lucidId=Us~_VLggizoJ;" vertex="1" parent="1">
          <mxGeometry x="-2445" y="-775" width="45" height="24" as="geometry" />
        </mxCell>
        <mxCell id="SQwasOvT_zGMSssknf-Y-45" value="NEEDLE" style="html=1;overflow=block;blockSpacing=1;whiteSpace=wrap;fontSize=13.3;fontStyle=1;align=left;spacing=3.8;verticalAlign=top;strokeColor=none;fillOpacity=0;rounded=1;absoluteArcSize=1;arcSize=3;fillColor=#ffffff;strokeWidth=0;lucidId=bt~_rMs-FOAw;" vertex="1" parent="1">
          <mxGeometry x="-2444" y="-906" width="71" height="18" as="geometry" />
        </mxCell>
        <mxCell id="SQwasOvT_zGMSssknf-Y-46" value="MACHINE" style="html=1;overflow=block;blockSpacing=1;whiteSpace=wrap;fontSize=13.3;fontStyle=1;align=left;spacing=3.8;verticalAlign=top;strokeColor=none;fillOpacity=0;rounded=1;absoluteArcSize=1;arcSize=3;fillColor=#ffffff;strokeWidth=0;lucidId=yt~_RuUM0qlz;" vertex="1" parent="1">
          <mxGeometry x="-2442" y="-624" width="71" height="18" as="geometry" />
        </mxCell>
        <mxCell id="SQwasOvT_zGMSssknf-Y-47" value="B2B &amp; B2C&#xa;Customers" style="rounded=1;absoluteArcSize=1;arcSize=2;verticalAlign=bottom;fillColor=#ffffff;strokeColor=#dddddd;whiteSpace=wrap;fontSize=10;fontFamily=Roboto;spacing=0;shadow=1;strokeWidth=1.5;html=1;" vertex="1" parent="1">
          <mxGeometry x="-2610" y="-774" width="111" height="113" as="geometry" />
        </mxCell>
        <mxCell id="SQwasOvT_zGMSssknf-Y-48" style="shape=mxgraph.gcp2.users;part=1;dashed=0;connectable=0;html=1;strokeColor=none;shadow=0;whiteSpace=wrap;fontSize=10;fontFamily=Roboto;spacing=0;rounded=1;absoluteArcSize=1;arcSize=3;fillColor=#757575;strokeWidth=1.5;" vertex="1" parent="SQwasOvT_zGMSssknf-Y-47">
          <mxGeometry x="0.5" width="77.69999999999999" height="48.95099999999999" relative="1" as="geometry">
            <mxPoint x="-38.849999999999994" y="24.374499999999998" as="offset" />
          </mxGeometry>
        </mxCell>
        <mxCell id="SQwasOvT_zGMSssknf-Y-49" value="" style="html=1;jettySize=18;whiteSpace=wrap;fontSize=13;strokeColor=#3a414a;strokeOpacity=100;strokeWidth=0.8;rounded=1;arcSize=12;edgeStyle=orthogonalEdgeStyle;startArrow=none;endArrow=block;endFill=1;exitX=0.5;exitY=0;exitPerimeter=0;entryX=-0.002;entryY=0.477;entryPerimeter=0;lucidId=ev~_TVWgmuw-;" edge="1" parent="1" source="SQwasOvT_zGMSssknf-Y-47" target="SQwasOvT_zGMSssknf-Y-33">
          <mxGeometry width="100" height="100" relative="1" as="geometry">
            <Array as="points" />
          </mxGeometry>
        </mxCell>
        <mxCell id="SQwasOvT_zGMSssknf-Y-50" value="" style="html=1;jettySize=18;whiteSpace=wrap;fontSize=13;strokeColor=#3a414a;strokeOpacity=100;strokeWidth=0.8;rounded=1;arcSize=12;edgeStyle=orthogonalEdgeStyle;startArrow=none;endArrow=block;endFill=1;exitX=1;exitY=0.5;exitPerimeter=0;entryX=-0.002;entryY=0.5;entryPerimeter=0;lucidId=gv~_Nv.l02G3;" edge="1" parent="1" source="SQwasOvT_zGMSssknf-Y-47" target="SQwasOvT_zGMSssknf-Y-32">
          <mxGeometry width="100" height="100" relative="1" as="geometry">
            <Array as="points" />
          </mxGeometry>
        </mxCell>
        <mxCell id="SQwasOvT_zGMSssknf-Y-51" value="" style="html=1;jettySize=18;whiteSpace=wrap;fontSize=13;strokeColor=#3a414a;strokeOpacity=100;strokeWidth=0.8;rounded=1;arcSize=12;edgeStyle=orthogonalEdgeStyle;startArrow=none;endArrow=block;endFill=1;exitX=0.5;exitY=1;exitPerimeter=0;entryX=-0.002;entryY=0.5;entryPerimeter=0;lucidId=iv~_l91Cx.tT;" edge="1" parent="1" source="SQwasOvT_zGMSssknf-Y-47" target="SQwasOvT_zGMSssknf-Y-34">
          <mxGeometry width="100" height="100" relative="1" as="geometry">
            <Array as="points" />
          </mxGeometry>
        </mxCell>
        <mxCell id="SQwasOvT_zGMSssknf-Y-52" value="Users" style="rounded=1;absoluteArcSize=1;arcSize=2;verticalAlign=bottom;fillColor=#ffffff;strokeColor=#dddddd;whiteSpace=wrap;fontSize=10;fontFamily=Roboto;spacing=0;shadow=1;strokeWidth=1.5;html=1;" vertex="1" parent="1">
          <mxGeometry x="-2562" y="-350" width="63" height="68" as="geometry" />
        </mxCell>
        <mxCell id="SQwasOvT_zGMSssknf-Y-53" style="shape=mxgraph.gcp2.users;part=1;dashed=0;connectable=0;html=1;strokeColor=none;shadow=0;whiteSpace=wrap;fontSize=10;fontFamily=Roboto;spacing=0;rounded=1;absoluteArcSize=1;arcSize=3;fillColor=#757575;strokeWidth=1.5;" vertex="1" parent="SQwasOvT_zGMSssknf-Y-52">
          <mxGeometry x="0.5" width="44.099999999999994" height="27.782999999999998" relative="1" as="geometry">
            <mxPoint x="-22.049999999999997" y="18.158499999999997" as="offset" />
          </mxGeometry>
        </mxCell>
        <mxCell id="SQwasOvT_zGMSssknf-Y-54" value="SCHOOLS" style="html=1;overflow=block;blockSpacing=1;whiteSpace=wrap;fontSize=13.3;fontStyle=1;align=left;spacing=3.8;verticalAlign=top;strokeColor=none;fillOpacity=0;rounded=1;absoluteArcSize=1;arcSize=3;fillColor=#ffffff;strokeWidth=0;lucidId=Pw~_m4eUn8Ov;" vertex="1" parent="1">
          <mxGeometry x="-2445" y="-389" width="71" height="18" as="geometry" />
        </mxCell>
        <mxCell id="SQwasOvT_zGMSssknf-Y-56" value="" style="html=1;jettySize=18;whiteSpace=wrap;fontSize=13;strokeColor=#3a414a;strokeOpacity=100;strokeWidth=0.8;rounded=1;arcSize=12;edgeStyle=orthogonalEdgeStyle;endArrow=block;endFill=1;exitX=-0.002;exitY=0.5;exitPerimeter=0;entryX=1;entryY=0.5;entryPerimeter=0;lucidId=y-~_N4w58MWk;" edge="1" parent="1" source="SQwasOvT_zGMSssknf-Y-23" target="SQwasOvT_zGMSssknf-Y-52">
          <mxGeometry width="100" height="100" relative="1" as="geometry">
            <Array as="points" />
          </mxGeometry>
        </mxCell>
        <mxCell id="SQwasOvT_zGMSssknf-Y-67" style="edgeStyle=orthogonalEdgeStyle;rounded=0;orthogonalLoop=1;jettySize=auto;html=1;exitX=1;exitY=0.5;exitDx=0;exitDy=0;entryX=1;entryY=0.5;entryDx=0;entryDy=0;" edge="1" parent="1" source="SQwasOvT_zGMSssknf-Y-62" target="SQwasOvT_zGMSssknf-Y-68">
          <mxGeometry relative="1" as="geometry">
            <Array as="points">
              <mxPoint x="-1600" y="-731" />
              <mxPoint x="-1600" y="-300" />
            </Array>
          </mxGeometry>
        </mxCell>
        <mxCell id="SQwasOvT_zGMSssknf-Y-71" style="edgeStyle=orthogonalEdgeStyle;rounded=0;orthogonalLoop=1;jettySize=auto;html=1;exitX=0;exitY=0.5;exitDx=0;exitDy=0;entryX=1;entryY=0.5;entryDx=0;entryDy=0;" edge="1" parent="1" source="SQwasOvT_zGMSssknf-Y-68" target="SQwasOvT_zGMSssknf-Y-69">
          <mxGeometry relative="1" as="geometry" />
        </mxCell>
        <mxCell id="SQwasOvT_zGMSssknf-Y-68" value="SCHOOLS" style="swimlane;whiteSpace=wrap;html=1;" vertex="1" parent="1">
          <mxGeometry x="-1880" y="-375.5" width="200" height="151" as="geometry" />
        </mxCell>
      </root>
    </mxGraphModel>
  </diagram>
</mxfile>
